<?xml version="1.0" standalone="no"?>
<!DOCTYPE svg PUBLIC "-//W3C//DTD SVG 20010904//EN"
 "http://www.w3.org/TR/2001/REC-SVG-20010904/DTD/svg10.dtd">
<svg version="1.0" xmlns="http://www.w3.org/2000/svg"
 width="136.000000pt" height="136.000000pt" viewBox="0 0 136.000000 136.000000"
 preserveAspectRatio="xMidYMid meet">
<metadata>
Created by potrace 1.14, written by Peter Selinger 2001-2017
</metadata>
<g transform="translate(0.000000,136.000000) scale(0.100000,-0.100000)"
fill="#000000" stroke="none">
<path d="M254 804 c1 -312 -3 -519 -9 -542 -8 -28 -19 -41 -49 -56 -33 -16
-43 -17 -77 -6 -22 7 -44 19 -50 27 -9 10 -17 4 -39 -29 -34 -50 -29 -61 39
-91 49 -21 124 -24 177 -7 42 14 90 69 103 117 7 24 11 228 11 566 l0 527 -53
0 -53 0 0 -506z"/>
<path d="M570 580 c0 -523 0 -530 20 -531 26 -1 172 -1 208 0 l27 1 0 180 c0
99 2 180 5 181 3 0 41 2 85 4 180 8 256 31 333 100 74 67 97 126 97 250 0 89
-3 106 -28 157 -32 66 -80 112 -152 144 -81 37 -122 42 -365 43 l-230 2 0
-531z m432 309 c65 -17 90 -47 96 -112 8 -103 -35 -139 -175 -147 -51 -3 -94
-3 -94 0 -1 3 -2 65 -3 138 l-1 132 70 0 c38 0 87 -5 107 -11z"/>
</g>
</svg>
